<mxfile host="app.diagrams.net" modified="2023-08-09T14:39:15.021Z" agent="Mozilla/5.0 (Windows NT 10.0; Win64; x64) AppleWebKit/537.36 (KHTML, like Gecko) Chrome/115.0.0.0 Safari/537.36" etag="yp3PieWJI-ekZ6askiEI" version="21.6.7" type="github">
  <diagram id="6a731a19-8d31-9384-78a2-239565b7b9f0" name="Page-1">
    <mxGraphModel dx="1400" dy="723" grid="1" gridSize="10" guides="1" tooltips="1" connect="1" arrows="1" fold="1" page="1" pageScale="1" pageWidth="1169" pageHeight="827" background="none" math="0" shadow="0">
      <root>
        <mxCell id="0" />
        <mxCell id="1" parent="0" />
        <mxCell id="1368" value="Cloud App" style="rounded=1;fillColor=#1799dd;strokeColor=none;strokeWidth=3;shadow=0;html=1;fontColor=#FFFFFF;" parent="1" vertex="1">
          <mxGeometry x="40" y="170" width="130" height="40" as="geometry" />
        </mxCell>
        <mxCell id="grCsGURQMANJ224fvGqF-1551" value="&lt;font color=&quot;#ffffff&quot; style=&quot;font-size: 15px;&quot;&gt;Raw Data&lt;/font&gt;" style="shape=cylinder3;whiteSpace=wrap;html=1;boundedLbl=1;backgroundOutline=1;size=15;fillColor=#1699d3;" vertex="1" parent="1">
          <mxGeometry x="380" y="310" width="100" height="100" as="geometry" />
        </mxCell>
        <mxCell id="grCsGURQMANJ224fvGqF-1552" value="Local system" style="rounded=1;fillColor=#1799dd;strokeColor=none;strokeWidth=3;shadow=0;html=1;fontColor=#FFFFFF;" vertex="1" parent="1">
          <mxGeometry x="40" y="260" width="130" height="40" as="geometry" />
        </mxCell>
        <mxCell id="grCsGURQMANJ224fvGqF-1553" value="Online system (LWM)" style="rounded=1;fillColor=#1799dd;strokeColor=none;strokeWidth=3;shadow=0;html=1;fontColor=#FFFFFF;" vertex="1" parent="1">
          <mxGeometry x="40" y="340" width="130" height="40" as="geometry" />
        </mxCell>
        <mxCell id="grCsGURQMANJ224fvGqF-1555" value="Real Time" style="rounded=1;fillColor=#1799dd;strokeColor=none;strokeWidth=3;shadow=0;html=1;fontColor=#FFFFFF;" vertex="1" parent="1">
          <mxGeometry x="40" y="414" width="130" height="40" as="geometry" />
        </mxCell>
        <mxCell id="grCsGURQMANJ224fvGqF-1556" value="ML server" style="rounded=1;fillColor=#1799dd;strokeColor=none;strokeWidth=3;shadow=0;html=1;fontColor=#FFFFFF;" vertex="1" parent="1">
          <mxGeometry x="40" y="500" width="130" height="40" as="geometry" />
        </mxCell>
        <mxCell id="grCsGURQMANJ224fvGqF-1558" value="" style="edgeStyle=none;endArrow=none;strokeWidth=3;strokeColor=#64BBE2;html=1;entryX=1;entryY=0.5;entryDx=0;entryDy=0;exitX=0;exitY=0.5;exitDx=0;exitDy=0;exitPerimeter=0;" edge="1" parent="1" source="grCsGURQMANJ224fvGqF-1577" target="1368">
          <mxGeometry x="-221.5" y="56.5" width="100" height="100" as="geometry">
            <mxPoint x="330" y="220" as="sourcePoint" />
            <mxPoint x="150" y="200" as="targetPoint" />
          </mxGeometry>
        </mxCell>
        <mxCell id="grCsGURQMANJ224fvGqF-1559" value="" style="edgeStyle=none;endArrow=none;strokeWidth=3;strokeColor=#64BBE2;html=1;entryX=1;entryY=0.5;entryDx=0;entryDy=0;exitX=0;exitY=0.5;exitDx=0;exitDy=0;" edge="1" parent="1">
          <mxGeometry x="-221.5" y="56.5" width="100" height="100" as="geometry">
            <mxPoint x="580" y="120" as="sourcePoint" />
            <mxPoint x="400" y="100" as="targetPoint" />
          </mxGeometry>
        </mxCell>
        <mxCell id="grCsGURQMANJ224fvGqF-1560" value="" style="edgeStyle=none;endArrow=none;strokeWidth=3;strokeColor=#64BBE2;html=1;entryX=0.5;entryY=0;entryDx=0;entryDy=0;exitX=0.5;exitY=1;exitDx=0;exitDy=0;exitPerimeter=0;" edge="1" parent="1" source="grCsGURQMANJ224fvGqF-1577" target="grCsGURQMANJ224fvGqF-1574">
          <mxGeometry x="-221.5" y="56.5" width="100" height="100" as="geometry">
            <mxPoint x="585" y="240" as="sourcePoint" />
            <mxPoint x="405" y="220" as="targetPoint" />
          </mxGeometry>
        </mxCell>
        <mxCell id="grCsGURQMANJ224fvGqF-1561" value="" style="edgeStyle=none;endArrow=none;strokeWidth=3;strokeColor=#64BBE2;html=1;entryX=1;entryY=0.5;entryDx=0;entryDy=0;exitX=0;exitY=0.5;exitDx=0;exitDy=0;exitPerimeter=0;" edge="1" parent="1" source="grCsGURQMANJ224fvGqF-1570" target="grCsGURQMANJ224fvGqF-1581">
          <mxGeometry x="-221.5" y="56.5" width="100" height="100" as="geometry">
            <mxPoint x="930" y="340" as="sourcePoint" />
            <mxPoint x="750" y="320" as="targetPoint" />
          </mxGeometry>
        </mxCell>
        <mxCell id="grCsGURQMANJ224fvGqF-1563" value="" style="edgeStyle=none;endArrow=none;strokeWidth=3;strokeColor=#64BBE2;html=1;entryX=1;entryY=0.5;entryDx=0;entryDy=0;entryPerimeter=0;exitX=0;exitY=0.5;exitDx=0;exitDy=0;" edge="1" parent="1" source="grCsGURQMANJ224fvGqF-1581" target="grCsGURQMANJ224fvGqF-1551">
          <mxGeometry x="-221.5" y="56.5" width="100" height="100" as="geometry">
            <mxPoint x="510" y="360" as="sourcePoint" />
            <mxPoint x="470" y="260" as="targetPoint" />
          </mxGeometry>
        </mxCell>
        <mxCell id="grCsGURQMANJ224fvGqF-1564" value="" style="edgeStyle=none;endArrow=none;strokeWidth=3;strokeColor=#64BBE2;html=1;exitX=0;exitY=0.5;exitDx=0;exitDy=0;exitPerimeter=0;" edge="1" parent="1" source="grCsGURQMANJ224fvGqF-1551">
          <mxGeometry x="-221.5" y="56.5" width="100" height="100" as="geometry">
            <mxPoint x="450" y="360" as="sourcePoint" />
            <mxPoint x="340" y="360" as="targetPoint" />
          </mxGeometry>
        </mxCell>
        <mxCell id="grCsGURQMANJ224fvGqF-1565" value="" style="edgeStyle=none;endArrow=none;strokeWidth=3;strokeColor=#64BBE2;html=1;entryX=1;entryY=0.5;entryDx=0;entryDy=0;exitX=0;exitY=0.5;exitDx=0;exitDy=0;" edge="1" parent="1" source="grCsGURQMANJ224fvGqF-1574" target="grCsGURQMANJ224fvGqF-1556">
          <mxGeometry x="-221.5" y="56.5" width="100" height="100" as="geometry">
            <mxPoint x="360" y="530" as="sourcePoint" />
            <mxPoint x="180" y="510" as="targetPoint" />
          </mxGeometry>
        </mxCell>
        <mxCell id="grCsGURQMANJ224fvGqF-1566" value="" style="endArrow=none;strokeWidth=3;strokeColor=#64BBE2;html=1;exitX=0;exitY=0.5;exitDx=0;exitDy=0;" edge="1" parent="1" source="grCsGURQMANJ224fvGqF-1574">
          <mxGeometry x="-221.5" y="56.5" width="100" height="100" as="geometry">
            <mxPoint x="550" y="360" as="sourcePoint" />
            <mxPoint x="170" y="440" as="targetPoint" />
          </mxGeometry>
        </mxCell>
        <mxCell id="grCsGURQMANJ224fvGqF-1567" value="" style="edgeStyle=none;endArrow=none;strokeWidth=3;strokeColor=#64BBE2;html=1;entryX=1;entryY=0.5;entryDx=0;entryDy=0;" edge="1" parent="1" target="grCsGURQMANJ224fvGqF-1553">
          <mxGeometry x="-221.5" y="56.5" width="100" height="100" as="geometry">
            <mxPoint x="230" y="360" as="sourcePoint" />
            <mxPoint x="180" y="360" as="targetPoint" />
          </mxGeometry>
        </mxCell>
        <mxCell id="grCsGURQMANJ224fvGqF-1568" value="" style="edgeStyle=none;endArrow=none;strokeWidth=3;strokeColor=#64BBE2;html=1;entryX=1;entryY=0.5;entryDx=0;entryDy=0;exitX=0;exitY=0.5;exitDx=0;exitDy=0;" edge="1" parent="1" source="grCsGURQMANJ224fvGqF-1574" target="grCsGURQMANJ224fvGqF-1552">
          <mxGeometry x="-221.5" y="56.5" width="100" height="100" as="geometry">
            <mxPoint x="360" y="300" as="sourcePoint" />
            <mxPoint x="180" y="280" as="targetPoint" />
          </mxGeometry>
        </mxCell>
        <mxCell id="grCsGURQMANJ224fvGqF-1570" value="&lt;font style=&quot;font-size: 15px;&quot; color=&quot;#ffffff&quot;&gt;DataStore&lt;/font&gt;" style="shape=cylinder3;whiteSpace=wrap;html=1;boundedLbl=1;backgroundOutline=1;size=15;fillColor=#1699d3;" vertex="1" parent="1">
          <mxGeometry x="740" y="310" width="110" height="100" as="geometry" />
        </mxCell>
        <mxCell id="grCsGURQMANJ224fvGqF-1572" value="&lt;font style=&quot;font-size: 15px;&quot; color=&quot;#ffffff&quot;&gt;Metadata Store&lt;/font&gt;" style="shape=cylinder3;whiteSpace=wrap;html=1;boundedLbl=1;backgroundOutline=1;size=15;fillColor=#1699d3;" vertex="1" parent="1">
          <mxGeometry x="710" y="90" width="300" height="80" as="geometry" />
        </mxCell>
        <mxCell id="grCsGURQMANJ224fvGqF-1573" value="&lt;font style=&quot;font-size: 15px;&quot; color=&quot;#ffffff&quot;&gt;DataloaderStore&lt;/font&gt;" style="shape=cylinder3;whiteSpace=wrap;html=1;boundedLbl=1;backgroundOutline=1;size=15;fillColor=#1699d3;" vertex="1" parent="1">
          <mxGeometry x="1070" y="320" width="130" height="80" as="geometry" />
        </mxCell>
        <mxCell id="grCsGURQMANJ224fvGqF-1574" value="&lt;font color=&quot;#ffffff&quot;&gt;Data Ingestion Module&lt;/font&gt;" style="rounded=1;whiteSpace=wrap;html=1;fillColor=#1799d3;" vertex="1" parent="1">
          <mxGeometry x="220" y="334" width="120" height="60" as="geometry" />
        </mxCell>
        <mxCell id="grCsGURQMANJ224fvGqF-1577" value="&lt;font style=&quot;font-size: 15px;&quot; color=&quot;#ffffff&quot;&gt;App Raw Data&lt;/font&gt;" style="shape=cylinder3;whiteSpace=wrap;html=1;boundedLbl=1;backgroundOutline=1;size=15;fillColor=#1699d3;" vertex="1" parent="1">
          <mxGeometry x="215" y="145" width="130" height="90" as="geometry" />
        </mxCell>
        <mxCell id="grCsGURQMANJ224fvGqF-1578" value="&lt;font style=&quot;font-size: 15px;&quot; color=&quot;#ffffff&quot;&gt;Model Registry&lt;/font&gt;" style="shape=cylinder3;whiteSpace=wrap;html=1;boundedLbl=1;backgroundOutline=1;size=15;fillColor=#1699d3;" vertex="1" parent="1">
          <mxGeometry x="1240.5" y="180" width="119" height="70" as="geometry" />
        </mxCell>
        <mxCell id="grCsGURQMANJ224fvGqF-1581" value="&lt;font color=&quot;#ffffff&quot;&gt;Cnvrg DataStore ETL Flow Modules&lt;/font&gt;" style="rounded=1;whiteSpace=wrap;html=1;fillColor=#1799d3;" vertex="1" parent="1">
          <mxGeometry x="530" y="330" width="160" height="60" as="geometry" />
        </mxCell>
        <mxCell id="grCsGURQMANJ224fvGqF-1592" value="&lt;font color=&quot;#ffffff&quot;&gt;Data Module&lt;/font&gt;" style="rounded=1;whiteSpace=wrap;html=1;fillColor=#1799d3;" vertex="1" parent="1">
          <mxGeometry x="640" y="570" width="120" height="60" as="geometry" />
        </mxCell>
        <mxCell id="grCsGURQMANJ224fvGqF-1593" value="&lt;font color=&quot;#ffffff&quot;&gt;Cnvrg Tag Module&lt;/font&gt;" style="rounded=1;whiteSpace=wrap;html=1;fillColor=#1799d3;" vertex="1" parent="1">
          <mxGeometry x="500" y="570" width="120" height="60" as="geometry" />
        </mxCell>
        <mxCell id="grCsGURQMANJ224fvGqF-1594" value="&lt;font color=&quot;#ffffff&quot;&gt;Metadata Module&lt;/font&gt;" style="rounded=1;whiteSpace=wrap;html=1;fillColor=#1799d3;" vertex="1" parent="1">
          <mxGeometry x="360" y="570" width="120" height="60" as="geometry" />
        </mxCell>
        <mxCell id="grCsGURQMANJ224fvGqF-1595" value="" style="edgeStyle=none;endArrow=none;strokeWidth=3;strokeColor=#64BBE2;html=1;entryX=1;entryY=0.5;entryDx=0;entryDy=0;exitX=0;exitY=0.5;exitDx=0;exitDy=0;" edge="1" parent="1">
          <mxGeometry x="-221.5" y="56.5" width="100" height="100" as="geometry">
            <mxPoint x="590" y="130" as="sourcePoint" />
            <mxPoint x="410" y="110" as="targetPoint" />
          </mxGeometry>
        </mxCell>
        <mxCell id="grCsGURQMANJ224fvGqF-1596" value="" style="edgeStyle=none;endArrow=none;strokeWidth=3;strokeColor=#64BBE2;html=1;entryX=1;entryY=0.5;entryDx=0;entryDy=0;exitX=0;exitY=0.5;exitDx=0;exitDy=0;" edge="1" parent="1">
          <mxGeometry x="-221.5" y="56.5" width="100" height="100" as="geometry">
            <mxPoint x="1580" y="110" as="sourcePoint" />
            <mxPoint x="1400" y="90" as="targetPoint" />
          </mxGeometry>
        </mxCell>
        <mxCell id="grCsGURQMANJ224fvGqF-1598" value="" style="edgeStyle=none;endArrow=none;strokeWidth=3;strokeColor=#64BBE2;html=1;entryX=1;entryY=0.5;entryDx=0;entryDy=0;exitX=0;exitY=0.5;exitDx=0;exitDy=0;" edge="1" parent="1" source="grCsGURQMANJ224fvGqF-1607" target="grCsGURQMANJ224fvGqF-1602">
          <mxGeometry x="-221.5" y="56.5" width="100" height="100" as="geometry">
            <mxPoint x="1680" y="270" as="sourcePoint" />
            <mxPoint x="1500" y="250" as="targetPoint" />
          </mxGeometry>
        </mxCell>
        <mxCell id="grCsGURQMANJ224fvGqF-1599" value="" style="edgeStyle=none;endArrow=none;strokeWidth=3;strokeColor=#64BBE2;html=1;entryX=1;entryY=0.5;entryDx=0;entryDy=0;exitX=0;exitY=0.5;exitDx=0;exitDy=0;exitPerimeter=0;" edge="1" parent="1" source="grCsGURQMANJ224fvGqF-1573" target="grCsGURQMANJ224fvGqF-1601">
          <mxGeometry x="-221.5" y="56.5" width="100" height="100" as="geometry">
            <mxPoint x="1250" y="255" as="sourcePoint" />
            <mxPoint x="1070" y="235" as="targetPoint" />
          </mxGeometry>
        </mxCell>
        <mxCell id="grCsGURQMANJ224fvGqF-1600" value="" style="edgeStyle=none;endArrow=none;strokeWidth=3;strokeColor=#64BBE2;html=1;exitX=0;exitY=0.5;exitDx=0;exitDy=0;entryX=1;entryY=0.5;entryDx=0;entryDy=0;entryPerimeter=0;" edge="1" parent="1" source="grCsGURQMANJ224fvGqF-1601" target="grCsGURQMANJ224fvGqF-1570">
          <mxGeometry x="-221.5" y="56.5" width="100" height="100" as="geometry">
            <mxPoint x="1020" y="260" as="sourcePoint" />
            <mxPoint x="840" y="240" as="targetPoint" />
          </mxGeometry>
        </mxCell>
        <mxCell id="grCsGURQMANJ224fvGqF-1601" value="&lt;font color=&quot;#ffffff&quot;&gt;Cnvrg DataLoader&amp;nbsp;Flow Modules&lt;/font&gt;" style="rounded=1;whiteSpace=wrap;html=1;fillColor=#1799d3;" vertex="1" parent="1">
          <mxGeometry x="890" y="330" width="140" height="60" as="geometry" />
        </mxCell>
        <mxCell id="grCsGURQMANJ224fvGqF-1602" value="&lt;font color=&quot;#ffffff&quot;&gt;Cnvrg Training Flow Modules&lt;/font&gt;" style="rounded=1;whiteSpace=wrap;html=1;fillColor=#1799d3;" vertex="1" parent="1">
          <mxGeometry x="1230" y="330" width="140" height="60" as="geometry" />
        </mxCell>
        <mxCell id="grCsGURQMANJ224fvGqF-1604" value="" style="edgeStyle=none;endArrow=none;strokeWidth=3;strokeColor=#64BBE2;html=1;entryX=1;entryY=0.5;entryDx=0;entryDy=0;exitX=0;exitY=0.5;exitDx=0;exitDy=0;entryPerimeter=0;" edge="1" parent="1" source="grCsGURQMANJ224fvGqF-1602" target="grCsGURQMANJ224fvGqF-1573">
          <mxGeometry x="-221.5" y="56.5" width="100" height="100" as="geometry">
            <mxPoint x="1435" y="300" as="sourcePoint" />
            <mxPoint x="1255" y="280" as="targetPoint" />
          </mxGeometry>
        </mxCell>
        <mxCell id="grCsGURQMANJ224fvGqF-1605" value="" style="edgeStyle=none;endArrow=none;strokeWidth=3;strokeColor=#64BBE2;html=1;" edge="1" parent="1" source="grCsGURQMANJ224fvGqF-1602" target="grCsGURQMANJ224fvGqF-1578">
          <mxGeometry x="-221.5" y="56.5" width="100" height="100" as="geometry">
            <mxPoint x="1481" y="320" as="sourcePoint" />
            <mxPoint x="1390" y="270" as="targetPoint" />
          </mxGeometry>
        </mxCell>
        <mxCell id="grCsGURQMANJ224fvGqF-1606" value="&lt;font style=&quot;font-size: 15px;&quot; color=&quot;#ffffff&quot;&gt;Metadata Store&lt;/font&gt;" style="shape=cylinder3;whiteSpace=wrap;html=1;boundedLbl=1;backgroundOutline=1;size=15;fillColor=#1699d3;" vertex="1" parent="1">
          <mxGeometry x="1050" y="100" width="160" height="100" as="geometry" />
        </mxCell>
        <mxCell id="grCsGURQMANJ224fvGqF-1607" value="&lt;font color=&quot;#ffffff&quot;&gt;Optimization and Testing Flow Modules&lt;/font&gt;" style="rounded=1;whiteSpace=wrap;html=1;fillColor=#1799d3;" vertex="1" parent="1">
          <mxGeometry x="1405" y="330" width="115" height="60" as="geometry" />
        </mxCell>
        <mxCell id="grCsGURQMANJ224fvGqF-1609" value="&lt;font color=&quot;#ffffff&quot;&gt;Deployment Flow Modules&lt;/font&gt;" style="rounded=1;whiteSpace=wrap;html=1;fillColor=#1799d3;" vertex="1" parent="1">
          <mxGeometry x="1560" y="330" width="130" height="60" as="geometry" />
        </mxCell>
        <mxCell id="grCsGURQMANJ224fvGqF-1610" value="" style="edgeStyle=none;endArrow=none;strokeWidth=3;strokeColor=#64BBE2;html=1;exitX=1;exitY=0.5;exitDx=0;exitDy=0;entryX=0;entryY=0.5;entryDx=0;entryDy=0;" edge="1" parent="1" source="grCsGURQMANJ224fvGqF-1607" target="grCsGURQMANJ224fvGqF-1609">
          <mxGeometry x="-221.5" y="56.5" width="100" height="100" as="geometry">
            <mxPoint x="1754" y="235" as="sourcePoint" />
            <mxPoint x="1884" y="295" as="targetPoint" />
          </mxGeometry>
        </mxCell>
        <mxCell id="grCsGURQMANJ224fvGqF-1613" value="&lt;font color=&quot;#ffffff&quot;&gt;&lt;span style=&quot;font-size: 15px;&quot;&gt;O&amp;amp;T Model Registry&lt;/span&gt;&lt;/font&gt;" style="shape=cylinder3;whiteSpace=wrap;html=1;boundedLbl=1;backgroundOutline=1;size=15;fillColor=#1699d3;" vertex="1" parent="1">
          <mxGeometry x="1400" y="180" width="120" height="70" as="geometry" />
        </mxCell>
        <mxCell id="grCsGURQMANJ224fvGqF-1614" value="" style="edgeStyle=none;endArrow=none;strokeWidth=3;strokeColor=#64BBE2;html=1;entryX=1;entryY=0.5;entryDx=0;entryDy=0;exitX=0;exitY=0.5;exitDx=0;exitDy=0;" edge="1" parent="1">
          <mxGeometry x="-221.5" y="56.5" width="100" height="100" as="geometry">
            <mxPoint x="1590" y="120" as="sourcePoint" />
            <mxPoint x="1410" y="100" as="targetPoint" />
          </mxGeometry>
        </mxCell>
        <mxCell id="grCsGURQMANJ224fvGqF-1615" value="" style="edgeStyle=none;endArrow=none;strokeWidth=3;strokeColor=#64BBE2;html=1;entryX=1;entryY=0.5;entryDx=0;entryDy=0;exitX=0;exitY=0.5;exitDx=0;exitDy=0;" edge="1" parent="1" source="grCsGURQMANJ224fvGqF-1617" target="grCsGURQMANJ224fvGqF-1609">
          <mxGeometry x="-221.5" y="56.5" width="100" height="100" as="geometry">
            <mxPoint x="2120" y="280" as="sourcePoint" />
            <mxPoint x="1940" y="260" as="targetPoint" />
          </mxGeometry>
        </mxCell>
        <mxCell id="grCsGURQMANJ224fvGqF-1616" value="" style="edgeStyle=none;endArrow=none;strokeWidth=3;strokeColor=#64BBE2;html=1;entryX=0.5;entryY=1;entryDx=0;entryDy=0;exitX=0.5;exitY=0;exitDx=0;exitDy=0;entryPerimeter=0;" edge="1" parent="1" source="grCsGURQMANJ224fvGqF-1607" target="grCsGURQMANJ224fvGqF-1613">
          <mxGeometry x="-221.5" y="56.5" width="100" height="100" as="geometry">
            <mxPoint x="1610" y="140" as="sourcePoint" />
            <mxPoint x="1430" y="120" as="targetPoint" />
          </mxGeometry>
        </mxCell>
        <mxCell id="grCsGURQMANJ224fvGqF-1617" value="&lt;font color=&quot;#ffffff&quot;&gt;Offline Performance Monitoring Flow Modules&lt;br&gt;&lt;/font&gt;" style="rounded=1;whiteSpace=wrap;html=1;fillColor=#1799d3;" vertex="1" parent="1">
          <mxGeometry x="1730" y="330" width="120" height="60" as="geometry" />
        </mxCell>
      </root>
    </mxGraphModel>
  </diagram>
</mxfile>
